  0
SECTION
  2
HEADER
  9
$ACADVER
  1
AC1032
  9
$ACADMAINTVER
 90
4
  9
$DWGCODEPAGE
  3
ANSI_1252
  9
$LASTSAVEDBY
  1
ezdxf
  9
$REQUIREDVERSIONS
160
0
  9
$INSBASE
 10
0.0
 20
0.0
 30
0.0
  9
$EXTMIN
 10
1e+20
 20
1e+20
 30
1e+20
  9
$EXTMAX
 10
-1e+20
 20
-1e+20
 30
-1e+20
  9
$LIMMIN
 10
0.0
 20
0.0
  9
$LIMMAX
 10
420.0
 20
297.0
  9
$ORTHOMODE
 70
0
  9
$REGENMODE
 70
1
  9
$FILLMODE
 70
1
  9
$QTEXTMODE
 70
0
  9
$MIRRTEXT
 70
1
  9
$LTSCALE
 40
1.0
  9
$ATTMODE
 70
1
  9
$TEXTSIZE
 40
2.5
  9
$TRACEWID
 40
1.0
  9
$TEXTSTYLE
  7
Standard
  9
$CLAYER
  8
0
  9
$CELTYPE
  6
ByLayer
  9
$CECOLOR
 62
256
  9
$CELTSCALE
 40
1.0
  9
$DISPSILH
 70
0
  9
$DIMSCALE
 40
1.0
  9
$DIMASZ
 40
2.5
  9
$DIMEXO
 40
0.625
  9
$DIMDLI
 40
3.75
  9
$DIMRND
 40
0.0
  9
$DIMDLE
 40
0.0
  9
$DIMEXE
 40
1.25
  9
$DIMTP
 40
0.0
  9
$DIMTM
 40
0.0
  9
$DIMTXT
 40
2.5
  9
$DIMCEN
 40
2.5
  9
$DIMTSZ
 40
0.0
  9
$DIMTOL
 70
0
  9
$DIMLIM
 70
0
  9
$DIMTIH
 70
0
  9
$DIMTOH
 70
0
  9
$DIMSE1
 70
0
  9
$DIMSE2
 70
0
  9
$DIMTAD
 70
1
  9
$DIMZIN
 70
8
  9
$DIMBLK
  1

  9
$DIMASO
 70
1
  9
$DIMSHO
 70
1
  9
$DIMPOST
  1

  9
$DIMAPOST
  1

  9
$DIMALT
 70
0
  9
$DIMALTD
 70
3
  9
$DIMALTF
 40
0.03937007874
  9
$DIMLFAC
 40
1.0
  9
$DIMTOFL
 70
1
  9
$DIMTVP
 40
0.0
  9
$DIMTIX
 70
0
  9
$DIMSOXD
 70
0
  9
$DIMSAH
 70
0
  9
$DIMBLK1
  1

  9
$DIMBLK2
  1

  9
$DIMSTYLE
  2
ISO-25
  9
$DIMCLRD
 70
0
  9
$DIMCLRE
 70
0
  9
$DIMCLRT
 70
0
  9
$DIMTFAC
 40
1.0
  9
$DIMGAP
 40
0.625
  9
$DIMJUST
 70
0
  9
$DIMSD1
 70
0
  9
$DIMSD2
 70
0
  9
$DIMTOLJ
 70
0
  9
$DIMTZIN
 70
8
  9
$DIMALTZ
 70
0
  9
$DIMALTTZ
 70
0
  9
$DIMUPT
 70
0
  9
$DIMDEC
 70
2
  9
$DIMTDEC
 70
2
  9
$DIMALTU
 70
2
  9
$DIMALTTD
 70
3
  9
$DIMTXSTY
  7
Standard
  9
$DIMAUNIT
 70
0
  9
$DIMADEC
 70
0
  9
$DIMALTRND
 40
0.0
  9
$DIMAZIN
 70
0
  9
$DIMDSEP
 70
44
  9
$DIMATFIT
 70
3
  9
$DIMFRAC
 70
0
  9
$DIMLDRBLK
  1

  9
$DIMLUNIT
 70
2
  9
$DIMLWD
 70
-2
  9
$DIMLWE
 70
-2
  9
$DIMTMOVE
 70
0
  9
$DIMFXL
 40
1.0
  9
$DIMFXLON
 70
0
  9
$DIMJOGANG
 40
0.785398163397
  9
$DIMTFILL
 70
0
  9
$DIMTFILLCLR
 70
0
  9
$DIMARCSYM
 70
0
  9
$DIMLTYPE
  6

  9
$DIMLTEX1
  6

  9
$DIMLTEX2
  6

  9
$DIMTXTDIRECTION
 70
0
  9
$LUNITS
 70
2
  9
$LUPREC
 70
4
  9
$SKETCHINC
 40
1.0
  9
$FILLETRAD
 40
10.0
  9
$AUNITS
 70
0
  9
$AUPREC
 70
2
  9
$MENU
  1
.
  9
$ELEVATION
 40
0.0
  9
$PELEVATION
 40
0.0
  9
$THICKNESS
 40
0.0
  9
$LIMCHECK
 70
0
  9
$CHAMFERA
 40
0.0
  9
$CHAMFERB
 40
0.0
  9
$CHAMFERC
 40
0.0
  9
$CHAMFERD
 40
0.0
  9
$SKPOLY
 70
0
  9
$TDCREATE
 40
2461313.907800926
  9
$TDUCREATE
 40
2458532.153996898
  9
$TDUPDATE
 40
2461313.907800926
  9
$TDUUPDATE
 40
2458532.1544311
  9
$TDINDWG
 40
0.0
  9
$TDUSRTIMER
 40
0.0
  9
$USRTIMER
 70
1
  9
$ANGBASE
 50
0.0
  9
$ANGDIR
 70
0
  9
$PDMODE
 70
0
  9
$PDSIZE
 40
0.0
  9
$PLINEWID
 40
0.0
  9
$SPLFRAME
 70
0
  9
$SPLINETYPE
 70
6
  9
$SPLINESEGS
 70
8
  9
$HANDSEED
  5
34
  9
$SURFTAB1
 70
6
  9
$SURFTAB2
 70
6
  9
$SURFTYPE
 70
6
  9
$SURFU
 70
6
  9
$SURFV
 70
6
  9
$UCSBASE
  2

  9
$UCSNAME
  2

  9
$UCSORG
 10
0.0
 20
0.0
 30
0.0
  9
$UCSXDIR
 10
1.0
 20
0.0
 30
0.0
  9
$UCSYDIR
 10
0.0
 20
1.0
 30
0.0
  9
$UCSORTHOREF
  2

  9
$UCSORTHOVIEW
 70
0
  9
$UCSORGTOP
 10
0.0
 20
0.0
 30
0.0
  9
$UCSORGBOTTOM
 10
0.0
 20
0.0
 30
0.0
  9
$UCSORGLEFT
 10
0.0
 20
0.0
 30
0.0
  9
$UCSORGRIGHT
 10
0.0
 20
0.0
 30
0.0
  9
$UCSORGFRONT
 10
0.0
 20
0.0
 30
0.0
  9
$UCSORGBACK
 10
0.0
 20
0.0
 30
0.0
  9
$PUCSBASE
  2

  9
$PUCSNAME
  2

  9
$PUCSORG
 10
0.0
 20
0.0
 30
0.0
  9
$PUCSXDIR
 10
1.0
 20
0.0
 30
0.0
  9
$PUCSYDIR
 10
0.0
 20
1.0
 30
0.0
  9
$PUCSORTHOREF
  2

  9
$PUCSORTHOVIEW
 70
0
  9
$PUCSORGTOP
 10
0.0
 20
0.0
 30
0.0
  9
$PUCSORGBOTTOM
 10
0.0
 20
0.0
 30
0.0
  9
$PUCSORGLEFT
 10
0.0
 20
0.0
 30
0.0
  9
$PUCSORGRIGHT
 10
0.0
 20
0.0
 30
0.0
  9
$PUCSORGFRONT
 10
0.0
 20
0.0
 30
0.0
  9
$PUCSORGBACK
 10
0.0
 20
0.0
 30
0.0
  9
$USERI1
 70
0
  9
$USERI2
 70
0
  9
$USERI3
 70
0
  9
$USERI4
 70
0
  9
$USERI5
 70
0
  9
$USERR1
 40
0.0
  9
$USERR2
 40
0.0
  9
$USERR3
 40
0.0
  9
$USERR4
 40
0.0
  9
$USERR5
 40
0.0
  9
$WORLDVIEW
 70
1
  9
$SHADEDGE
 70
3
  9
$SHADEDIF
 70
70
  9
$TILEMODE
 70
1
  9
$MAXACTVP
 70
64
  9
$PINSBASE
 10
0.0
 20
0.0
 30
0.0
  9
$PLIMCHECK
 70
0
  9
$PEXTMIN
 10
1e+20
 20
1e+20
 30
1e+20
  9
$PEXTMAX
 10
-1e+20
 20
-1e+20
 30
-1e+20
  9
$PLIMMIN
 10
0.0
 20
0.0
  9
$PLIMMAX
 10
420.0
 20
297.0
  9
$UNITMODE
 70
0
  9
$VISRETAIN
 70
1
  9
$PLINEGEN
 70
0
  9
$PSLTSCALE
 70
1
  9
$TREEDEPTH
 70
3020
  9
$CMLSTYLE
  2
Standard
  9
$CMLJUST
 70
0
  9
$CMLSCALE
 40
20.0
  9
$PROXYGRAPHICS
 70
1
  9
$MEASUREMENT
 70
1
  9
$CELWEIGHT
370
-1
  9
$ENDCAPS
280
0
  9
$JOINSTYLE
280
0
  9
$LWDISPLAY
290
0
  9
$INSUNITS
 70
21
  9
$HYPERLINKBASE
  1

  9
$STYLESHEET
  1

  9
$XEDIT
290
1
  9
$CEPSNTYPE
380
0
  9
$PSTYLEMODE
290
1
  9
$FINGERPRINTGUID
  2
{2504A425-50FC-42EA-BF7D-C82FA2302F5D}
  9
$VERSIONGUID
  2
{F67BD0B7-2F80-42B2-9F5D-9C60B7D98B4E}
  9
$EXTNAMES
290
1
  9
$PSVPSCALE
 40
0.0
  9
$OLESTARTUP
290
0
  9
$SORTENTS
280
127
  9
$INDEXCTL
280
0
  9
$HIDETEXT
280
1
  9
$XCLIPFRAME
280
1
  9
$HALOGAP
280
0
  9
$OBSCOLOR
 70
257
  9
$OBSLTYPE
280
0
  9
$INTERSECTIONDISPLAY
280
0
  9
$INTERSECTIONCOLOR
 70
257
  9
$DIMASSOC
280
2
  9
$PROJECTNAME
  1

  9
$CAMERADISPLAY
290
0
  9
$LENSLENGTH
 40
50.0
  9
$CAMERAHEIGHT
 40
0.0
  9
$STEPSPERSEC
 40
24.0
  9
$STEPSIZE
 40
100.0
  9
$3DDWFPREC
 40
2.0
  9
$PSOLWIDTH
 40
0.005
  9
$PSOLHEIGHT
 40
0.08
  9
$LOFTANG1
 40
1.570796326795
  9
$LOFTANG2
 40
1.570796326795
  9
$LOFTMAG1
 40
0.0
  9
$LOFTMAG2
 40
0.0
  9
$LOFTPARAM
 70
7
  9
$LOFTNORMALS
280
1
  9
$LATITUDE
 40
37.795
  9
$LONGITUDE
 40
-122.394
  9
$NORTHDIRECTION
 40
0.0
  9
$TIMEZONE
 70
-8000
  9
$LIGHTGLYPHDISPLAY
280
1
  9
$TILEMODELIGHTSYNCH
280
1
  9
$CMATERIAL
347
20
  9
$SOLIDHIST
280
0
  9
$SHOWHIST
280
1
  9
$DWFFRAME
280
2
  9
$DGNFRAME
280
2
  9
$REALWORLDSCALE
290
1
  9
$INTERFERECOLOR
 62
256
  9
$CSHADOW
280
0
  9
$SHADOWPLANELOCATION
 40
0.0
  0
ENDSEC
  0
SECTION
  2
CLASSES
  0
CLASS
  1
ACDBDICTIONARYWDFLT
  2
AcDbDictionaryWithDefault
  3
ObjectDBX Classes
 90
0
 91
0
280
0
281
0
  0
CLASS
  1
SUN
  2
AcDbSun
  3
SCENEOE
 90
1153
 91
0
280
0
281
0
  0
CLASS
  1
VISUALSTYLE
  2
AcDbVisualStyle
  3
ObjectDBX Classes
 90
4095
 91
0
280
0
281
0
  0
CLASS
  1
MATERIAL
  2
AcDbMaterial
  3
ObjectDBX Classes
 90
1153
 91
0
280
0
281
0
  0
CLASS
  1
SCALE
  2
AcDbScale
  3
ObjectDBX Classes
 90
1153
 91
0
280
0
281
0
  0
CLASS
  1
TABLESTYLE
  2
AcDbTableStyle
  3
ObjectDBX Classes
 90
4095
 91
0
280
0
281
0
  0
CLASS
  1
MLEADERSTYLE
  2
AcDbMLeaderStyle
  3
ACDB_MLEADERSTYLE_CLASS
 90
4095
 91
0
280
0
281
0
  0
CLASS
  1
DICTIONARYVAR
  2
AcDbDictionaryVar
  3
ObjectDBX Classes
 90
0
 91
0
280
0
281
0
  0
CLASS
  1
CELLSTYLEMAP
  2
AcDbCellStyleMap
  3
ObjectDBX Classes
 90
1152
 91
0
280
0
281
0
  0
CLASS
  1
MENTALRAYRENDERSETTINGS
  2
AcDbMentalRayRenderSettings
  3
SCENEOE
 90
1024
 91
0
280
0
281
0
  0
CLASS
  1
ACDBDETAILVIEWSTYLE
  2
AcDbDetailViewStyle
  3
ObjectDBX Classes
 90
1025
 91
0
280
0
281
0
  0
CLASS
  1
ACDBSECTIONVIEWSTYLE
  2
AcDbSectionViewStyle
  3
ObjectDBX Classes
 90
1025
 91
0
280
0
281
0
  0
CLASS
  1
RASTERVARIABLES
  2
AcDbRasterVariables
  3
ISM
 90
0
 91
0
280
0
281
0
  0
CLASS
  1
LAYOUT
  2
AcDbLayout
  3
ObjectDBX Classes
 90
0
 91
0
280
0
281
0
  0
CLASS
  1
ACDBPLACEHOLDER
  2
AcDbPlaceHolder
  3
ObjectDBX Classes
 90
0
 91
0
280
0
281
0
  0
ENDSEC
  0
SECTION
  2
TABLES
  0
TABLE
  2
VPORT
  5
8
330
0
100
AcDbSymbolTable
 70
1
  0
VPORT
  5
23
330
8
100
AcDbSymbolTableRecord
100
AcDbViewportTableRecord
  2
*Active
 70
0
 10
0.0
 20
0.0
 11
1.0
 21
1.0
 12
0.0
 22
0.0
 13
0.0
 23
0.0
 14
0.5
 24
0.5
 15
0.5
 25
0.5
 16
0.0
 26
0.0
 36
1.0
 17
0.0
 27
0.0
 37
0.0
 40
1000.0
 41
1.34
 42
50.0
 43
0.0
 44
0.0
 50
0.0
 51
0.0
 71
0
 72
1000
 73
1
 74
3
 75
0
 76
0
 77
0
 78
0
281
0
 65
0
146
0.0
  0
ENDTAB
  0
TABLE
  2
LTYPE
  5
2
330
0
100
AcDbSymbolTable
 70
3
  0
LTYPE
  5
24
330
2
100
AcDbSymbolTableRecord
100
AcDbLinetypeTableRecord
  2
ByBlock
 70
0
  3

 72
65
 73
0
 40
0.0
  0
LTYPE
  5
25
330
2
100
AcDbSymbolTableRecord
100
AcDbLinetypeTableRecord
  2
ByLayer
 70
0
  3

 72
65
 73
0
 40
0.0
  0
LTYPE
  5
26
330
2
100
AcDbSymbolTableRecord
100
AcDbLinetypeTableRecord
  2
Continuous
 70
0
  3

 72
65
 73
0
 40
0.0
  0
ENDTAB
  0
TABLE
  2
LAYER
  5
1
330
0
100
AcDbSymbolTable
 70
3
  0
LAYER
  5
27
330
1
100
AcDbSymbolTableRecord
100
AcDbLayerTableRecord
  2
0
 70
0
 62
7
  6
Continuous
370
-3
390
13
347
21
  0
LAYER
  5
28
330
1
100
AcDbSymbolTableRecord
100
AcDbLayerTableRecord
  2
Defpoints
 70
0
 62
7
  6
Continuous
290
0
370
-3
390
13
347
21
  0
LAYER
  5
2F
330
1
100
AcDbSymbolTableRecord
100
AcDbLayerTableRecord
  2
PUBLIC_FOOTPRINT
 70
0
 62
4
  6
Continuous
370
-3
390
13
347
21
  0
ENDTAB
  0
TABLE
  2
STYLE
  5
5
330
0
100
AcDbSymbolTable
 70
1
  0
STYLE
  5
29
330
5
100
AcDbSymbolTableRecord
100
AcDbTextStyleTableRecord
  2
Standard
 70
0
 40
0.0
 41
1.0
 50
0.0
 71
0
 42
2.5
  3
txt
  4

  0
ENDTAB
  0
TABLE
  2
VIEW
  5
7
330
0
100
AcDbSymbolTable
 70
0
  0
ENDTAB
  0
TABLE
  2
UCS
  5
6
330
0
100
AcDbSymbolTable
 70
0
  0
ENDTAB
  0
TABLE
  2
APPID
  5
3
330
0
100
AcDbSymbolTable
 70
3
  0
APPID
  5
2A
330
3
100
AcDbSymbolTableRecord
100
AcDbRegAppTableRecord
  2
ACAD
 70
0
  0
APPID
  5
31
330
3
100
AcDbSymbolTableRecord
100
AcDbRegAppTableRecord
  2
HATCHBACKGROUNDCOLOR
 70
0
  0
APPID
  5
32
330
3
100
AcDbSymbolTableRecord
100
AcDbRegAppTableRecord
  2
EZDXF
 70
0
  0
ENDTAB
  0
TABLE
  2
DIMSTYLE
  5
4
330
0
100
AcDbSymbolTable
 70
1
100
AcDbDimStyleTable
  0
DIMSTYLE
105
2B
330
4
100
AcDbSymbolTableRecord
100
AcDbDimStyleTableRecord
  2
Standard
 70
0
 40
1.0
 41
2.5
 42
0.625
 43
3.75
 44
1.25
 45
0.0
 46
0.0
 47
0.0
 48
0.0
 49
2.5
140
2.5
141
2.5
142
0.0
143
0.03937007874
144
1.0
145
0.0
146
1.0
147
0.625
148
0.0
 69
0
 70
0
 71
0
 72
0
 73
0
 74
0
 75
0
 76
0
 77
1
 78
8
 79
3
170
0
171
3
172
1
173
0
174
0
175
0
176
0
177
0
178
0
179
2
271
2
272
2
273
2
274
3
275
0
276
0
277
2
278
44
279
0
280
0
281
0
282
0
283
0
284
8
285
0
286
0
288
0
289
3
290
0
371
-2
372
-2
  0
ENDTAB
  0
TABLE
  2
BLOCK_RECORD
  5
9
330
0
100
AcDbSymbolTable
 70
2
  0
BLOCK_RECORD
  5
17
330
9
100
AcDbSymbolTableRecord
100
AcDbBlockTableRecord
  2
*Model_Space
340
1A
 70
0
280
1
281
0
  0
BLOCK_RECORD
  5
1B
330
9
100
AcDbSymbolTableRecord
100
AcDbBlockTableRecord
  2
*Paper_Space
340
1E
 70
0
280
1
281
0
  0
ENDTAB
  0
ENDSEC
  0
SECTION
  2
BLOCKS
  0
BLOCK
  5
18
330
17
100
AcDbEntity
  8
0
100
AcDbBlockBegin
  2
*Model_Space
 70
0
 10
0.0
 20
0.0
 30
0.0
  3
*Model_Space
  1

  0
ENDBLK
  5
19
330
17
100
AcDbEntity
  8
0
100
AcDbBlockEnd
  0
BLOCK
  5
1C
330
1B
100
AcDbEntity
  8
0
100
AcDbBlockBegin
  2
*Paper_Space
 70
0
 10
0.0
 20
0.0
 30
0.0
  3
*Paper_Space
  1

  0
ENDBLK
  5
1D
330
1B
100
AcDbEntity
  8
0
100
AcDbBlockEnd
  0
ENDSEC
  0
SECTION
  2
ENTITIES
  0
LWPOLYLINE
  5
30
330
17
100
AcDbEntity
  8
PUBLIC_FOOTPRINT
100
AcDbPolyline
 90
309
 70
1
 10
991739.657256031
 20
224026.000998359
 10
991758.24711388
 20
224015.674575406
 10
991770.295318156
 20
224037.363180363
 10
991771.431470741
 20
224039.408451841
 10
991772.329762911
 20
224041.025574603
 10
991773.069262747
 20
224040.614814268
 10
991779.491494012
 20
224037.047564176
 10
991787.993445507
 20
224032.324804585
 10
991796.395331605
 20
224027.657491063
 10
991797.560683607
 20
224029.755255911
 10
991800.27754169
 20
224034.646650315
 10
991803.029176627
 20
224039.600052494
 10
991805.575431382
 20
224044.183704752
 10
991822.141671238
 20
224034.981295311
 10
991820.29390589
 20
224031.655186478
 10
991815.362485295
 20
224022.776923383
 10
991812.961571455
 20
224018.455081638
 10
991830.145592218
 20
224008.909168947
 10
991825.864760882
 20
224001.202819507
 10
991821.57933637
 20
223993.488267995
 10
991817.759462104
 20
223986.611969414
 10
991803.557390743
 20
223961.045747556
 10
991799.274590887
 20
223953.335789215
 10
991795.527223051
 20
223946.590067793
 10
991753.954799514
 20
223871.751962802
 10
991771.155880621
 20
223863.685377857
 10
991754.276321152
 20
223833.135242066
 10
991775.925884168
 20
223821.064728117
 10
991719.634329942
 20
223719.024905849
 10
991697.905042667
 20
223731.106246553
 10
991680.595365962
 20
223699.775600503
 10
991664.475319447
 20
223708.68437537
 10
991634.109894529
 20
223654.668079157
 10
991617.93079298
 20
223625.542809297
 10
991590.601123161
 20
223576.344088749
 10
991595.446913995
 20
223558.551801465
 10
991566.539819497
 20
223506.515816248
 10
991568.479776238
 20
223505.850135156
 10
991570.345258078
 20
223504.998430833
 10
991572.119204661
 20
223503.968577246
 10
991573.783899491
 20
223502.77074498
 10
991575.323922658
 20
223501.416088906
 10
991576.724510409
 20
223499.917732308
 10
991577.972211325
 20
223498.28978282
 10
991579.055214419
 20
223496.548316491
 10
991579.96302101
 20
223494.709081316
 10
991580.687100917
 20
223492.790121884
 10
991581.220564418
 20
223490.80981089
 10
991581.55849026
 20
223488.78684905
 10
991581.697269494
 20
223486.740593286
 10
991581.63591791
 20
223484.690728618
 10
991581.374763585
 20
223482.656283869
 10
991580.916431162
 20
223480.65727212
 10
991580.265185744
 20
223478.712394121
 10
991579.427260902
 20
223476.840350632
 10
991578.411186818
 20
223475.058858121
 10
991577.225821725
 20
223473.384976935
 10
991575.882976642
 20
223471.835111286
 10
991574.39511873
 20
223470.423368699
 10
991572.776683642
 20
223469.163200602
 10
991571.0430913
 20
223468.067074193
 10
991569.211073972
 20
223467.145488113
 10
991567.297691959
 20
223466.406972532
 10
991565.321317959
 20
223465.858417205
 10
991563.30098079
 20
223465.505399536
 10
991561.256037356
 20
223465.351200368
 10
991559.20551654
 20
223465.397460113
 10
991557.169103277
 20
223465.643194528
 10
991555.166810693
 20
223466.086435125
 10
991553.217011453
 20
223466.722916795
 10
991551.338734353
 20
223467.546405959
 10
991549.549695928
 20
223468.549356711
 10
991547.866956527
 20
223469.721926541
 10
991546.306920273
 20
223471.05328872
 10
991544.883694776
 20
223472.530319883
 10
991543.61171568
 20
223474.139240548
 10
991542.502794016
 20
223475.864302708
 10
991541.567100346
 20
223477.689430314
 10
991540.814149098
 20
223479.597234895
 10
991540.25115811
 20
223481.569343804
 10
991539.882720522
 20
223483.587056327
 10
991539.713101438
 20
223485.631015495
 10
991539.743613192
 20
223487.681536322
 10
991539.974255766
 20
223489.719590007
 10
991540.402076439
 20
223491.725491491
 10
991541.024122441
 20
223493.679883912
 10
991541.833504023
 20
223495.564394577
 10
991542.822675279
 20
223497.360978917
 10
991543.982777946
 20
223499.052248509
 10
991545.302329119
 20
223500.622455324
 10
991493.433994492
 20
223529.435389925
 10
991488.550802166
 20
223546.507862362
 10
991453.288405453
 20
223566.096077824
 10
991353.415245527
 20
223621.575297726
 10
991342.140989827
 20
223601.280062712
 10
991340.880493659
 20
223599.930655972
 10
991339.472688072
 20
223598.735120295
 10
991337.936273814
 20
223597.709531792
 10
991336.291920151
 20
223596.867669956
 10
991334.561280558
 20
223596.220361542
 10
991332.767320888
 20
223595.776792886
 10
991330.933991226
 20
223595.542213304
 10
991329.085897805
 20
223595.520559789
 10
991327.247646878
 20
223595.711176221
 10
991325.443516642
 20
223596.112422132
 10
991323.697785202
 20
223596.718392036
 10
991322.033418467
 20
223597.5208839
 10
991320.472726034
 20
223598.509727052
 10
991319.036377211
 20
223599.671470145
 10
991317.743728879
 20
223600.99069323
 10
991316.61184137
 20
223602.449679825
 10
991315.655806548
 20
223604.029401071
 10
991314.88841963
 20
223605.708531557
 10
991314.319851208
 20
223607.464433572
 10
991313.957647211
 20
223609.274141248
 10
991313.806400798
 20
223611.113704501
 10
991313.868736634
 20
223612.958188997
 10
991314.143342377
 20
223614.782988492
 10
991314.626609127
 20
223616.564152914
 10
991314.81656939
 20
223618.924712509
 10
991289.68538604
 20
223632.814448542
 10
991280.565653587
 20
223616.295124598
 10
991286.066298754
 20
223613.253792092
 10
991288.440309769
 20
223611.38010818
 10
991290.043981092
 20
223609.772499831
 10
991292.323176012
 20
223606.755445501
 10
991293.431113422
 20
223604.773166002
 10
991294.584326343
 20
223601.975599419
 10
991295.358274917
 20
223598.829608342
 10
991295.702434345
 20
223596.042540403
 10
991295.700137765
 20
223593.771547583
 10
991295.569232504
 20
223592.264004642
 10
991295.335965257
 20
223590.768928905
 10
991294.033146325
 20
223586.425105554
 10
991291.511497823
 20
223581.513698058
 10
991288.245756316
 20
223575.464169463
 10
991287.758224471
 20
223572.818177383
 10
991287.809405477
 20
223570.893312455
 10
991288.433748066
 20
223568.273895126
 10
991261.775336791
 20
223582.415271067
 10
991265.508597039
 20
223583.602932745
 10
991267.15951238
 20
223585.094071476
 10
991272.914094064
 20
223595.405402588
 10
991224.163207259
 20
223622.351214894
 10
991219.324306164
 20
223613.810877644
 10
991218.859412081
 20
223611.939162236
 10
991218.724241731
 20
223610.015937718
 10
991218.803965987
 20
223608.861084394
 10
991219.002784494
 20
223607.720338651
 10
991219.451274416
 20
223606.243635552
 10
991192.644897545
 20
223620.784288925
 10
991194.625536633
 20
223621.255416613
 10
991195.569432386
 20
223621.640586431
 10
991196.759390634
 20
223622.295768856
 10
991197.848955394
 20
223623.10679085
 10
991199.651117148
 20
223625.132377353
 10
991206.176038498
 20
223637.146132865
 10
991208.28955133
 20
223639.333136356
 10
991210.061201334
 20
223640.773094129
 10
991212.63731167
 20
223642.390873032
 10
991215.018540511
 20
223643.513574201
 10
991217.589729603
 20
223644.320331107
 10
991219.827914104
 20
223644.770461452
 10
991222.696346691
 20
223644.959765537
 10
991225.320029102
 20
223644.887587195
 10
991228.143186197
 20
223644.410225931
 10
991229.611359121
 20
223644.008651926
 10
991232.445999118
 20
223642.904979591
 10
991237.815739049
 20
223639.935497329
 10
991247.015195731
 20
223656.575227866
 10
991220.825287463
 20
223671.044359056
 10
991219.045435379
 20
223669.659191217
 10
991217.779033708
 20
223668.307159799
 10
991216.365650698
 20
223667.109327564
 10
991214.823659028
 20
223666.082098642
 10
991213.174384107
 20
223665.238596395
 10
991211.43882327
 20
223664.590631806
 10
991209.640598523
 20
223664.146406982
 10
991207.803331848
 20
223663.911827397
 10
991205.951301433
 20
223663.890173909
 10
991204.109113511
 20
223664.081774565
 10
991202.301374326
 20
223664.483676641
 10
991200.552034013
 20
223665.090958895
 10
991198.884058342
 20
223665.895419237
 10
991197.320085097
 20
223666.886230907
 10
991195.880455421
 20
223668.050598677
 10
991194.584198177
 20
223669.372774498
 10
991193.448701754
 20
223670.835369998
 10
991192.489058002
 20
223672.419028246
 10
991191.717734079
 20
223674.102423845
 10
991191.145228669
 20
223675.863575178
 10
991190.779087666
 20
223677.679188356
 10
991190.624232338
 20
223679.524985198
 10
991190.682631172
 20
223681.376031346
 10
991190.953628002
 20
223683.208704849
 10
991191.43328584
 20
223684.998071359
 10
991203.102553864
 20
223706.004919128
 10
991157.617408579
 20
223731.271929024
 10
991081.961063748
 20
223773.299076056
 10
991068.104464156
 20
223780.996567246
 10
991067.675003074
 20
223780.223931001
 10
991055.731785465
 20
223776.976562156
 10
991050.41617929
 20
223775.531026995
 10
991050.364998289
 20
223775.559242156
 10
990999.477960913
 20
223803.826902255
 10
990998.86346082
 20
223804.168437009
 10
990998.75322482
 20
223803.82460567
 10
990998.22697915
 20
223802.18156431
 10
990997.396272153
 20
223800.267526153
 10
990996.379869993
 20
223798.445679409
 10
990995.187615148
 20
223796.733084412
 10
990993.831318652
 20
223795.147785725
 10
990992.32475997
 20
223793.704547143
 10
990990.682046719
 20
223792.418132397
 10
990988.919911138
 20
223791.301008653
 10
990987.055413546
 20
223790.36433073
 10
990985.107582791
 20
223789.617284974
 10
990984.68337105
 20
223789.501143473
 10
990983.09479154
 20
223789.067089242
 10
990981.037380955
 20
223788.719320904
 10
990978.956020292
 20
223788.577588894
 10
990976.870394525
 20
223788.642877498
 10
990974.801829118
 20
223788.915186664
 10
990972.770337117
 20
223789.39090748
 10
990970.796259698
 20
223790.066102988
 10
990968.89895378
 20
223790.93388341
 10
990967.096792022
 20
223791.985718595
 10
990965.408147092
 20
223793.211109841
 10
990964.950470854
 20
223793.618261251
 10
990963.849423187
 20
223794.597918101
 10
990962.436040184
 20
223796.132691939
 10
990961.1817776
 20
223797.800339519
 10
990960.099430685
 20
223799.583800523
 10
990959.986898099
 20
223799.819036253
 10
990959.199170019
 20
223801.466014602
 10
990958.490181941
 20
223803.428281032
 10
990957.979684269
 20
223805.451570943
 10
990957.672270187
 20
223807.514887032
 10
990957.570892442
 20
223809.59887236
 10
990957.677191443
 20
223811.682857701
 10
990957.989526767
 20
223813.74584571
 10
990958.505273772
 20
223815.767495207
 10
990959.218855019
 20
223817.72812121
 10
990960.123380784
 20
223819.608038707
 10
990961.209992779
 20
223821.389203144
 10
990961.352052874
 20
223821.577194883
 10
990962.468192379
 20
223823.053569869
 10
990963.885184284
 20
223824.585062882
 10
990965.447517129
 20
223825.968262219
 10
990965.73032497
 20
223826.17233006
 10
990967.139114803
 20
223827.189388383
 10
990968.943573139
 20
223828.236958459
 10
990970.842847551
 20
223829.100473783
 10
990972.818565398
 20
223829.770748049
 10
990973.05117647
 20
223829.824553713
 10
990974.851369725
 20
223830.241875716
 10
990976.920591314
 20
223830.508935539
 10
990979.005888991
 20
223830.569302883
 10
990981.087249646
 20
223830.422649634
 10
990983.143675995
 20
223830.069960036
 10
990985.155154917
 20
223829.515171117
 10
990987.101345243
 20
223828.763204108
 10
990987.711252153
 20
223828.455133865
 10
990988.96354625
 20
223827.822261112
 10
990990.723057157
 20
223826.700872286
 10
990992.362489589
 20
223825.410520531
 10
991020.344717151
 20
223877.335285506
 10
991038.485100858
 20
223881.029503822
 10
991060.442734158
 20
223920.557311939
 10
991088.581457491
 20
223971.212394426
 10
991116.508895148
 20
224020.738870211
 10
991175.016324129
 20
223989.152319128
 10
991165.915620522
 20
223972.717968785
 10
991184.217421208
 20
223962.145155263
 10
991181.934289271
 20
223957.796082578
 10
991186.795500019
 20
223955.278699151
 10
991196.977894397
 20
223974.124462007
 10
991284.79891306
 20
223925.591422454
 10
991260.667071495
 20
223881.841509905
 10
991335.232867323
 20
223840.174598385
 10
991362.142590482
 20
223887.049832777
 10
991353.375219549
 20
223892.865766032
 10
991405.941059457
 20
223999.054530144
 10
991411.110996626
 20
224000.422309557
 10
991418.859996892
 20
224002.472174234
 10
991421.357695319
 20
224001.084709812
 10
991432.219222161
 20
223995.051257279
 10
991442.5472855
 20
223989.314064016
 10
991458.602699589
 20
223980.395118564
 10
991477.812963034
 20
223969.724208122
 10
991493.397905636
 20
223961.066745113
 10
991497.096717135
 20
223947.908963006
 10
991495.379528961
 20
223944.817761826
 10
991515.971023232
 20
223933.379136395
 10
991542.03757216
 20
223918.899178439
 10
991605.555161734
 20
223883.615128176
 10
991633.47636576
 20
223868.104988525
 10
991636.932067517
 20
223866.185372964
 10
991637.441909013
 20
223867.103350123
 10
991645.343139962
 20
223881.326418801
 10
991634.958318185
 20
223887.095108066
 10
991644.171882478
 20
223903.681032914
 10
991654.55637615
 20
223897.912671732
 10
991666.890669102
 20
223920.11603942
 10
991674.930351196
 20
223935.314171779
 10
991579.723848601
 20
223986.18021191
 10
991599.590934908
 20
224022.83729087
 10
991639.185344016
 20
224095.425072281
 10
991744.424634959
 20
224034.583330265
  0
ENDSEC
  0
SECTION
  2
OBJECTS
  0
DICTIONARY
  5
A
330
0
100
AcDbDictionary
281
1
  3
ACAD_COLOR
350
B
  3
ACAD_GROUP
350
C
  3
ACAD_LAYOUT
350
D
  3
ACAD_MATERIAL
350
E
  3
ACAD_MLEADERSTYLE
350
F
  3
ACAD_MLINESTYLE
350
10
  3
ACAD_PLOTSETTINGS
350
11
  3
ACAD_PLOTSTYLENAME
350
12
  3
ACAD_SCALELIST
350
14
  3
ACAD_TABLESTYLE
350
15
  3
ACAD_VISUALSTYLE
350
16
  3
EZDXF_META
350
2D
  0
DICTIONARY
  5
B
330
A
100
AcDbDictionary
281
1
  0
DICTIONARY
  5
C
330
A
100
AcDbDictionary
281
1
  0
DICTIONARY
  5
D
330
A
100
AcDbDictionary
281
1
  3
Model
350
1A
  3
Layout1
350
1E
  0
DICTIONARY
  5
E
330
A
100
AcDbDictionary
281
1
  3
ByBlock
350
1F
  3
ByLayer
350
20
  3
Global
350
21
  0
DICTIONARY
  5
F
330
A
100
AcDbDictionary
281
1
  3
Standard
350
2C
  0
DICTIONARY
  5
10
330
A
100
AcDbDictionary
281
1
  3
Standard
350
22
  0
DICTIONARY
  5
11
330
A
100
AcDbDictionary
281
1
  0
ACDBDICTIONARYWDFLT
  5
12
330
A
100
AcDbDictionary
281
1
  3
Normal
350
13
100
AcDbDictionaryWithDefault
340
13
  0
ACDBPLACEHOLDER
  5
13
330
12
  0
DICTIONARY
  5
14
330
A
100
AcDbDictionary
281
1
  0
DICTIONARY
  5
15
330
A
100
AcDbDictionary
281
1
  0
DICTIONARY
  5
16
330
A
100
AcDbDictionary
281
1
  0
LAYOUT
  5
1A
330
D
100
AcDbPlotSettings
  1

  4
A3
  6

 40
7.5
 41
20.0
 42
7.5
 43
20.0
 44
420.0
 45
297.0
 46
0.0
 47
0.0
 48
0.0
 49
0.0
140
0.0
141
0.0
142
1.0
143
1.0
 70
1024
 72
1
 73
0
 74
5
  7

 75
16
 76
0
 77
2
 78
300
147
1.0
148
0.0
149
0.0
100
AcDbLayout
  1
Model
 70
1
 71
0
 10
0.0
 20
0.0
 11
420.0
 21
297.0
 12
0.0
 22
0.0
 32
0.0
 14
1e+20
 24
1e+20
 34
1e+20
 15
-1e+20
 25
-1e+20
 35
-1e+20
146
0.0
 13
0.0
 23
0.0
 33
0.0
 16
1.0
 26
0.0
 36
0.0
 17
0.0
 27
1.0
 37
0.0
 76
1
330
17
  0
LAYOUT
  5
1E
330
D
100
AcDbPlotSettings
  1

  4
A3
  6

 40
7.5
 41
20.0
 42
7.5
 43
20.0
 44
420.0
 45
297.0
 46
0.0
 47
0.0
 48
0.0
 49
0.0
140
0.0
141
0.0
142
1.0
143
1.0
 70
0
 72
1
 73
0
 74
5
  7

 75
16
 76
0
 77
2
 78
300
147
1.0
148
0.0
149
0.0
100
AcDbLayout
  1
Layout1
 70
1
 71
1
 10
0.0
 20
0.0
 11
420.0
 21
297.0
 12
0.0
 22
0.0
 32
0.0
 14
1e+20
 24
1e+20
 34
1e+20
 15
-1e+20
 25
-1e+20
 35
-1e+20
146
0.0
 13
0.0
 23
0.0
 33
0.0
 16
1.0
 26
0.0
 36
0.0
 17
0.0
 27
1.0
 37
0.0
 76
1
330
1B
  0
MATERIAL
  5
1F
102
{ACAD_REACTORS
330
E
102
}
330
E
100
AcDbMaterial
  1
ByBlock
  2

 70
0
 40
1.0
 71
1
 41
1.0
 91
-1023410177
 42
1.0
 72
1
  3

 73
1
 74
1
 75
1
 44
0.5
 73
0
 45
1.0
 46
1.0
 77
1
  4

 78
1
 79
1
170
1
 48
1.0
171
1
  6

172
1
173
1
174
1
140
1.0
141
1.0
175
1
  7

176
1
177
1
178
1
143
1.0
179
1
  8

270
1
271
1
272
1
145
1.0
146
1.0
273
1
  9

274
1
275
1
276
1
 42
1.0
 72
1
  3

 73
1
 74
1
 75
1
 94
63
  0
MATERIAL
  5
20
102
{ACAD_REACTORS
330
E
102
}
330
E
100
AcDbMaterial
  1
ByLayer
  2

 70
0
 40
1.0
 71
1
 41
1.0
 91
-1023410177
 42
1.0
 72
1
  3

 73
1
 74
1
 75
1
 44
0.5
 73
0
 45
1.0
 46
1.0
 77
1
  4

 78
1
 79
1
170
1
 48
1.0
171
1
  6

172
1
173
1
174
1
140
1.0
141
1.0
175
1
  7

176
1
177
1
178
1
143
1.0
179
1
  8

270
1
271
1
272
1
145
1.0
146
1.0
273
1
  9

274
1
275
1
276
1
 42
1.0
 72
1
  3

 73
1
 74
1
 75
1
 94
63
  0
MATERIAL
  5
21
102
{ACAD_REACTORS
330
E
102
}
330
E
100
AcDbMaterial
  1
Global
  2

 70
0
 40
1.0
 71
1
 41
1.0
 91
-1023410177
 42
1.0
 72
1
  3

 73
1
 74
1
 75
1
 44
0.5
 73
0
 45
1.0
 46
1.0
 77
1
  4

 78
1
 79
1
170
1
 48
1.0
171
1
  6

172
1
173
1
174
1
140
1.0
141
1.0
175
1
  7

176
1
177
1
178
1
143
1.0
179
1
  8

270
1
271
1
272
1
145
1.0
146
1.0
273
1
  9

274
1
275
1
276
1
 42
1.0
 72
1
  3

 73
1
 74
1
 75
1
 94
63
  0
MLINESTYLE
  5
22
102
{ACAD_REACTORS
330
10
102
}
330
10
100
AcDbMlineStyle
  2
Standard
 70
0
  3

 62
256
 51
90.0
 52
90.0
 71
2
 49
0.5
 62
256
  6
BYLAYER
 49
-0.5
 62
256
  6
BYLAYER
  0
MLEADERSTYLE
  5
2C
102
{ACAD_REACTORS
330
F
102
}
330
F
100
AcDbMLeaderStyle
179
2
170
2
171
1
172
0
 90
2
 40
0.0
 41
0.0
173
1
 91
-1056964608
 92
-2
290
1
 42
2.0
291
1
 43
8.0
  3
Standard
 44
4.0
300

342
29
174
1
175
1
176
0
178
1
 93
-1056964608
 45
4.0
292
0
297
0
 46
4.0
 94
-1056964608
 47
1.0
 49
1.0
140
1.0
294
1
141
0.0
177
0
142
1.0
295
0
296
0
143
3.75
271
0
272
9
273
9
  0
DICTIONARY
  5
2D
330
A
100
AcDbDictionary
280
1
281
1
  3
CREATED_BY_EZDXF
350
2E
  3
WRITTEN_BY_EZDXF
350
33
  0
DICTIONARYVAR
  5
2E
330
2D
100
DictionaryVariables
280
0
  1
1.4.4 @ 2026-09-30T01:47:14.637808+00:00
  0
DICTIONARYVAR
  5
33
330
2D
100
DictionaryVariables
280
0
  1
1.4.4 @ 2026-09-30T01:47:14.641083+00:00
  0
ENDSEC
  0
EOF
