<svg xmlns="http://www.w3.org/2000/svg" viewBox="0 0 560 350"><rect width="560" height="350" fill="#0c1724"/><path d="M 326.13,271.85 L 330.38,272.99 L 327.65,283.17 L 323.12,300.00 L 237.74,277.04 L 183.35,262.42 L 188.00,245.13 L 194.57,220.71 L 201.41,222.55 L 205.26,208.21 L 199.31,206.61 L 199.56,205.68 L 208.77,171.42 L 215.49,146.40 L 216.05,144.32 L 199.92,139.98 L 198.63,144.76 L 196.68,152.03 L 182.76,148.29 L 180.90,147.79 L 185.83,129.47 L 168.94,124.93 L 168.40,126.94 L 159.84,124.64 L 160.26,123.08 L 142.52,118.31 L 142.94,116.72 L 143.94,113.00 L 138.27,111.48 L 141.35,100.02 L 112.34,92.22 L 85.20,84.93 L 84.72,86.72 L 82.88,86.22 L 82.49,87.67 L 80.25,87.07 L 77.59,96.97 L 67.99,94.39 L 63.64,93.22 L 62.55,97.26 L 57.66,95.95 L 58.75,91.90 L 35.00,85.52 L 38.05,74.18 L 36.51,73.77 L 45.59,40.00 L 79.83,49.20 L 79.26,51.29 L 85.78,53.05 L 90.40,54.29 L 90.12,55.32 L 126.03,64.98 L 161.82,74.60 L 162.01,73.89 L 172.05,76.59 L 172.66,74.33 L 175.83,75.19 L 182.72,49.56 L 212.34,57.52 L 221.44,59.97 L 230.61,62.44 L 239.84,64.92 L 242.32,65.58 L 236.95,85.53 L 234.81,93.50 L 238.28,94.43 L 247.22,96.83 L 250.48,97.71 L 250.11,99.08 L 258.95,101.46 L 321.21,118.20 L 321.35,117.67 L 332.06,120.55 L 332.50,118.90 L 336.09,119.87 L 355.98,125.22 L 366.96,128.17 L 362.49,144.78 L 360.93,150.61 L 359.81,154.77 L 358.93,158.03 L 358.03,161.40 L 357.71,162.57 L 355.15,161.88 L 354.92,162.73 L 352.77,170.74 L 352.73,170.89 L 352.68,171.09 L 352.62,171.29 L 352.56,171.51 L 388.95,180.95 L 365.80,270.19 L 329.45,259.49 L 326.13,271.85 Z" fill="#173e50" fill-rule="evenodd" stroke="#55d7ce" stroke-width="1.5"/><text x="22" y="327" fill="#d3e7ed" font-size="14" font-family="sans-serif">Grid X extent 523.0 ft · Grid Y extent 384.2 ft</text><text x="22" y="344" fill="#839aa9" font-size="11" font-family="sans-serif">EPSG:2263 · source footprint · accuracy varies by geometry source</text></svg>